<?xml version="1.0" standalone="no"?>
<!DOCTYPE svg PUBLIC "-//W3C//DTD SVG 20010904//EN"
 "http://www.w3.org/TR/2001/REC-SVG-20010904/DTD/svg10.dtd">
<svg version="1.0" xmlns="http://www.w3.org/2000/svg"
 width="700.000000pt" height="700.000000pt" viewBox="0 0 700.000000 700.000000"
 preserveAspectRatio="xMidYMid meet">
<metadata>
Created by potrace 1.11, written by Peter Selinger 2001-2013
</metadata>
<g transform="translate(0.000000,700.000000) scale(0.100000,-0.100000)"
fill="#000000" stroke="none">
<path d="M3388 6935 c-2 -1 -61 -5 -132 -9 -71 -4 -132 -8 -135 -10 -3 -2 -33
-6 -66 -10 -64 -7 -78 -9 -195 -31 -517 -97 -1019 -321 -1445 -645 -109 -83
-137 -107 -244 -205 -379 -349 -667 -764 -861 -1240 -71 -174 -145 -411 -166
-529 -3 -16 -6 -32 -8 -35 -2 -3 -7 -24 -10 -46 -4 -22 -13 -71 -20 -110 -8
-38 -18 -99 -21 -135 -4 -36 -8 -72 -10 -80 -15 -81 -22 -435 -11 -590 8 -107
32 -306 47 -384 5 -28 12 -64 15 -81 12 -69 62 -258 99 -374 51 -160 193 -488
255 -591 5 -8 35 -58 66 -110 187 -316 457 -634 729 -860 50 -41 92 -78 95
-81 17 -19 263 -188 355 -244 143 -87 398 -211 550 -268 109 -41 320 -109 377
-121 171 -38 322 -66 376 -72 37 -3 70 -8 73 -10 16 -9 224 -19 409 -19 239 0
343 8 550 40 242 37 555 128 799 232 857 366 1536 1074 1872 1953 8 19 14 37
15 40 0 3 3 12 7 20 20 52 84 260 92 301 2 8 10 44 19 80 14 58 29 135 41 200
10 53 31 239 40 344 6 77 7 382 0 460 -10 129 -17 198 -21 218 -2 12 -6 40 -9
62 -15 117 -56 306 -96 444 -231 793 -724 1467 -1404 1918 -565 374 -1181 566
-1863 577 -89 2 -163 2 -164 1z"/>
</g>
</svg>
