<?xml version="1.0" encoding="UTF-8" standalone="no"?>
<!-- Created with Inkscape (http://www.inkscape.org/) -->

<svg
   xmlns:dc="http://purl.org/dc/elements/1.1/"
   xmlns:cc="http://creativecommons.org/ns#"
   xmlns:rdf="http://www.w3.org/1999/02/22-rdf-syntax-ns#"
   xmlns:svg="http://www.w3.org/2000/svg"
   xmlns="http://www.w3.org/2000/svg"
   xmlns:sodipodi="http://sodipodi.sourceforge.net/DTD/sodipodi-0.dtd"
   xmlns:inkscape="http://www.inkscape.org/namespaces/inkscape"
   width="32"
   height="32"
   id="svg3939"
   version="1.1"
   inkscape:version="0.48.5 r10040"
   sodipodi:docname="ws-logo.svg"
   inkscape:export-filename="/home/christoph/workspace/weinstein/src/public/img/ws-logo.png"
   inkscape:export-xdpi="84.375"
   inkscape:export-ydpi="84.375">
  <defs
     id="defs3941" />
  <sodipodi:namedview
     id="base"
     pagecolor="#ffffff"
     bordercolor="#666666"
     borderopacity="1.0"
     inkscape:pageopacity="0.0"
     inkscape:pageshadow="2"
     inkscape:zoom="22"
     inkscape:cx="19.171805"
     inkscape:cy="15.741303"
     inkscape:current-layer="layer1"
     showgrid="true"
     inkscape:document-units="px"
     inkscape:grid-bbox="true"
     inkscape:window-width="1920"
     inkscape:window-height="1014"
     inkscape:window-x="0"
     inkscape:window-y="27"
     inkscape:window-maximized="1" />
  <metadata
     id="metadata3944">
    <rdf:RDF>
      <cc:Work
         rdf:about="">
        <dc:format>image/svg+xml</dc:format>
        <dc:type
           rdf:resource="http://purl.org/dc/dcmitype/StillImage" />
        <dc:title></dc:title>
      </cc:Work>
    </rdf:RDF>
  </metadata>
  <g
     id="layer1"
     inkscape:label="Layer 1"
     inkscape:groupmode="layer"
     transform="translate(0,-32)">
    <path
       sodipodi:type="arc"
       style="fill:#1a1a1a;stroke-width:0.20000000000000001;stroke-miterlimit:4;stroke-dasharray:none"
       id="path4509"
       sodipodi:cx="70.196419"
       sodipodi:cy="50.243561"
       sodipodi:rx="24.427324"
       sodipodi:ry="24.427324"
       d="m 94.623743,50.243561 a 24.427324,24.427324 0 1 1 -48.854649,0 24.427324,24.427324 0 1 1 48.854649,0 z"
       transform="matrix(0.64534792,0,0,0.64534792,-29.279861,15.629478)" />
    <g
       id="g4483"
       transform="matrix(0.5362481,0,0,0.5362481,-0.53064532,30.620066)"
       style="fill:#ffffff">
      <path
         sodipodi:nodetypes="ccccccc"
         inkscape:connector-curvature="0"
         id="path4459"
         d="m 30.181818,10.818182 13.636364,0 C 51.181818,31.636364 31.73641,32.363636 31.73641,32.363636 c -0.530278,6.720541 -0.314829,13.142791 0,19.525289 9.280939,0.08674 10.466358,0.372773 10.466358,0.372773 3.097201,0.829892 2.023547,1.581677 2.023547,1.581677 l -14.142136,0"
         style="fill:#ffffff;stroke:#000000;stroke-width:0.2;stroke-linecap:butt;stroke-linejoin:miter;stroke-miterlimit:4;stroke-opacity:1;stroke-dasharray:none" />
      <path
         sodipodi:nodetypes="ccccccc"
         inkscape:connector-curvature="0"
         id="path4459-4"
         d="m 31.257851,10.820673 -13.636364,0 c -7.363636,20.818181 12.081772,21.545453 12.081772,21.545453 0.530278,6.720541 0.314829,13.142791 0,19.525289 -9.280939,0.08674 -10.466358,0.372773 -10.466358,0.372773 -3.097201,0.829892 -2.023547,1.581677 -2.023547,1.581677 l 14.142136,0"
         style="fill:#ffffff;stroke:#000000;stroke-width:0.2;stroke-linecap:butt;stroke-linejoin:miter;stroke-miterlimit:4;stroke-opacity:1;stroke-dasharray:none" />
    </g>
    <path
       style="fill:none;stroke:#000000;stroke-width:0;stroke-linecap:butt;stroke-linejoin:miter;stroke-miterlimit:4;stroke-opacity:1;stroke-dasharray:none"
       d="M 15.992469,47.392803 C 15.12472,47.444953 14.231284,47.261546 13.315958,46.982404 12.383019,46.712038 11.453441,46.22962 10.568072,45.483558 9.3481237,44.44393 8.5188717,42.981855 8.6231397,40.523089 l 7.4050173,0"
       id="path4487"
       inkscape:connector-curvature="0"
       sodipodi:nodetypes="cccc" />
    <path
       style="fill:none;stroke:#000000;stroke-width:0;stroke-linecap:butt;stroke-linejoin:miter;stroke-miterlimit:4;stroke-opacity:1;stroke-dasharray:none"
       d="m 15.976901,47.392835 c 0.86775,0.05215 1.761187,-0.131258 2.676513,-0.4104 0.932937,-0.270365 1.862515,-0.752784 2.747883,-1.498846 1.219953,-1.039627 2.049201,-2.501703 1.944934,-4.960469 l -7.405016,0"
       id="path4487-3"
       inkscape:connector-curvature="0"
       sodipodi:nodetypes="cccc" />
    <path
       style="fill:#aa0000;stroke-width:0.2;stroke-miterlimit:4;stroke-dasharray:none"
       d="M 14.868338,47.275903 C 12.35978,46.912457 10.19321,45.545267 9.3038156,43.764469 8.9127373,42.981428 8.7538653,42.317969 8.7034081,41.257129 l -0.033005,-0.693945 7.3083179,0 7.308318,0 -0.0321,0.769648 c -0.0358,0.858349 -0.158484,1.453677 -0.437814,2.124656 -0.627547,1.507435 -2.227397,2.836998 -4.138378,3.439221 -1.013547,0.319407 -1.420514,0.385354 -2.498205,0.404828 -0.555157,0.01003 -1.145642,-0.0015 -1.312189,-0.02564 z"
       id="path4507"
       inkscape:connector-curvature="0" />
    <path
       style="fill:#d7f4ee;stroke-width:0.2;stroke-miterlimit:4;stroke-dasharray:none"
       d="m 8.7362229,59.367647 c -0.099621,-0.16119 0.3393279,-0.432816 0.9570791,-0.59225 0.409722,-0.105745 2.9689,-0.229013 4.76302,-0.229421 l 1.024034,-2.54e-4 0.0544,-1.126008 c 0.07003,-1.449455 0.07066,-7.670282 8.87e-4,-8.714451 l -0.05349,-0.800668 -0.422283,-0.04317 C 14.425071,47.796554 13.519945,47.586319 12.807084,47.338188 10.524956,46.543832 9.0522591,45.137132 8.432476,43.159625 7.9347162,41.571452 8.0516624,39.486373 8.7676709,37.183293 l 0.2021513,-0.65023 6.9679468,0 6.967949,0 0.159599,0.491638 c 0.902299,2.77946 0.916576,5.26533 0.04022,7.003312 -0.362629,0.719165 -0.5822,1.023506 -1.138235,1.577682 -0.984164,0.98087 -2.375285,1.691335 -4.023998,2.055112 -0.387635,0.08553 -0.894666,0.17473 -1.126734,0.198224 l -0.421941,0.04271 -0.05384,0.928978 c -0.06976,1.203738 -0.06953,6.704257 3.81e-4,8.388564 l 0.0542,1.306186 2.134386,0.04325 c 3.289543,0.06666 3.961177,0.149953 4.476294,0.555144 0.411155,0.323432 0.716017,0.309994 -7.032534,0.309994 -4.930489,0 -7.2092542,-0.02085 -7.2372926,-0.06621 z M 17.469396,47.345806 c 1.511665,-0.280581 2.630891,-0.770584 3.767205,-1.649308 1.407136,-1.088152 2.066585,-2.434231 2.16612,-4.42151 l 0.04051,-0.808824 -7.440688,0 -7.4406896,0 0.037712,0.90398 c 0.03977,0.953355 0.1148427,1.351932 0.3905,2.073319 0.7508029,1.964828 3.0348526,3.522061 5.8061186,3.958528 0.451924,0.07118 2.18306,0.03479 2.67321,-0.05618 z"
       id="path4529"
       inkscape:connector-curvature="0" />
    <path
       style="fill:#ffffff;stroke-width:0.2;stroke-miterlimit:4;stroke-dasharray:none"
       d="m 11.418158,59.391195 c -1.546279,-0.01294 -2.6484991,-0.04636 -2.6484991,-0.0803 0,-0.102163 0.3148692,-0.310167 0.6221013,-0.410964 0.480257,-0.157563 1.2962328,-0.2219 3.7550598,-0.296077 1.2735,-0.03842 2.328861,-0.083 2.345248,-0.09907 0.109072,-0.106937 0.136375,-9.988382 0.02884,-10.440492 -0.0316,-0.132871 -0.08722,-0.179885 -0.240193,-0.203031 C 14.269206,47.70822 13.701193,47.583452 13.053446,47.372031 11.402311,46.833112 10.237849,46.067038 9.4212315,44.982478 8.0048057,43.101306 7.7962168,40.717399 8.752688,37.341886 l 0.2291846,-0.808823 6.9596314,0 6.959634,0 0.258752,0.935697 c 0.337747,1.221348 0.433057,1.718018 0.516055,2.689204 0.198315,2.320517 -0.44338,4.239569 -1.854893,5.547238 -1.113881,1.031935 -2.61626,1.712084 -4.483226,2.029621 -0.503625,0.08566 -0.930856,0.170916 -0.949403,0.189463 -0.115216,0.115216 -0.142535,9.343206 -0.03044,10.281699 l 0.03898,0.326331 1.308895,0.03693 c 2.349079,0.06629 4.156495,0.167546 4.521822,0.253318 0.197042,0.04627 0.495193,0.164362 0.662558,0.262445 0.296323,0.173657 0.300236,0.17986 0.149239,0.236602 -0.167938,0.06311 -7.294969,0.105777 -11.62132,0.06958 z M 18.190071,47.20305 c 1.143315,-0.313103 1.843249,-0.634681 2.718803,-1.249129 0.944726,-0.662993 1.56632,-1.377744 1.9677,-2.262596 0.343465,-0.757179 0.479514,-1.415225 0.571707,-2.765242 l 0.0314,-0.459919 -7.475056,0 -7.475055,0 0.029596,0.681949 c 0.078479,1.808311 0.4740778,2.858529 1.469044,3.899948 0.652174,0.682625 1.171744,1.058971 2.07189,1.500759 0.824816,0.404817 1.290371,0.572813 2.125461,0.766975 0.469612,0.109188 0.714253,0.12228 1.902797,0.101825 1.280993,-0.02204 1.406313,-0.03509 2.061706,-0.21457 l 0,0 z"
       id="path4531"
       inkscape:connector-curvature="0" />
  </g>
</svg>
